# 3ds Max Wavefront OBJ Exporter v0.97b - (c)2007 guruware
# File Created: 05.01.2021 17:38:00

mtllib hp.mtl

#
# object HP_DL388e_G8
#

v  -0.3500 -0.0000 0.2250
v  -0.3500 -0.0000 -0.2250
v  0.3500 -0.0000 -0.2250
v  0.3500 -0.0000 0.2250
v  -0.3500 0.0900 0.2250
v  0.3500 0.0900 0.2250
v  0.3500 0.0900 -0.2250
v  -0.3500 0.0900 -0.2250
# 8 vertices

vn 0.0000 -1.0000 -0.0000
vn 0.0000 1.0000 -0.0000
vn 0.0000 0.0000 1.0000
vn 1.0000 0.0000 0.0000
vn -0.0000 0.0000 -1.0000
vn -1.0000 0.0000 -0.0000
# 6 vertex normals

vt 0.9995 0.0005 0.0005
vt 0.9995 0.9995 0.0005
vt 0.0005 0.9995 0.0005
vt 0.0005 0.0005 0.0005
vt 0.0005 0.0005 0.9995
vt 0.9995 0.0005 0.9995
vt 0.9995 0.9995 0.9995
vt 0.0005 0.9995 0.9995
# 8 texture coords

g HP_DL388e_G8
usemtl Material__242
s 2
f 1/1/1 2/2/1 3/3/1 4/4/1 
s 4
f 5/5/2 6/6/2 7/7/2 8/8/2 
s 8
f 1/4/3 4/1/3 6/2/3 5/3/3 
usemtl Material__244
s 16
f 4/5/4 3/6/4 7/7/4 6/8/4 
usemtl Material__242
s 32
f 3/5/5 2/6/5 8/7/5 7/8/5 
usemtl Material__243
s 64
f 2/4/6 1/1/6 5/2/6 8/3/6 
# 6 polygons

